# xmcd CD database file
# Copyright 1993-1996 (C) Ti Kan
#
# Track frame offsets:
#    183
#    18303
#    26258
#    44480
#    64015
#    93700
#    117815
#    134538
#    165235
#    219468
#    240305
#    256038
#    270560
#    285770
#    295433
#    322635
#    327383
#
# Disc length: 4535 seconds
#
# Revision: 1
# Processed by: cddbd v1.4b41PL1 Copyright (c) Steve Scherf et al.
# Submitted via: MyCDplayer 2.1.9  (wjohn@fix.net)
#
DISCID=e211b511
DTITLE=Stevie Ray Vaughan - Life Without You - Disc 2
DYEAR=1900
DGENRE=
TTITLE0=Gone Home
TTITLE1=Hey Motherfucker
TTITLE2=Hug You Squeeze You (Take 2)
TTITLE3=Say What (Take 6)
TTITLE4=Say What (Take 11)
TTITLE5=Hangnails And Boogers
TTITLE6=Hangnails And Boogers
TTITLE7=Life Without You (Take 3)
TTITLE8=Jam
TTITLE9=The Sky Is Crying
TTITLE10=Boot Hill (Take 1)
TTITLE11=Boot Hill (Take 2)
TTITLE12=Empty Arms
TTITLE13=You don't wanna hear me sing that shit
TTITLE14=Life Without You (Take 12)
TTITLE15=Bass Theme a la Nosferatu
TTITLE16=Guitar Licks
EXTD=
EXTT0=
EXTT1=
EXTT2=
EXTT3=
EXTT4=
EXTT5=
EXTT6=
EXTT7=
EXTT8=
EXTT9=
EXTT10=
EXTT11=
EXTT12=
EXTT13=
EXTT14=
EXTT15=
EXTT16=
PLAYORDER=
